<svg width="65" height="65" viewBox="0 0 65 65" fill="none" xmlns="http://www.w3.org/2000/svg">
<rect x="0.5" y="0.5" width="64" height="64" rx="32" fill="url(#paint0_linear_2089_32564)"/>
<rect x="0.5" y="0.5" width="64" height="64" rx="32" stroke="black"/>
<path d="M13.9051 24.1602L13.9051 29.6987L11.8281 29.6987L11.8281 24.1602L13.9051 24.1602Z" fill="#985703"/>
<path d="M51.2902 24.1602L51.2902 29.6987L53.3672 29.6987L53.3672 24.1602L51.2902 24.1602Z" fill="#985703"/>
<path d="M21.5203 35.2383L21.5203 40.7768L19.4434 40.7768L19.4434 35.2383L21.5203 35.2383Z" fill="#985703"/>
<path d="M43.6828 35.2324L43.6828 40.7709L45.7598 40.7709L45.7598 35.2324L43.6828 35.2324Z" fill="#985703"/>
<path d="M16.6755 29.6953L16.6755 32.4646L13.9062 32.4646L13.9062 29.6953L16.6755 29.6953Z" fill="#985703"/>
<path d="M48.5296 29.707L48.5296 32.4763L51.2988 32.4763L51.2988 29.707L48.5296 29.707Z" fill="#985703"/>
<path d="M19.4528 32.4668L19.4528 35.236L16.6836 35.236L16.6836 32.4668L19.4528 32.4668Z" fill="#985703"/>
<path d="M45.7522 32.4668L45.7522 35.236L48.5215 35.236L48.5215 32.4668L45.7522 32.4668Z" fill="#985703"/>
<path d="M19.4489 40.7734L19.4489 51.1581L16.6797 51.1581L16.6797 40.7734L19.4489 40.7734Z" fill="#985703"/>
<path d="M45.7522 40.7734L45.7522 51.1581L48.5215 51.1581L48.5215 40.7734L45.7522 40.7734Z" fill="#985703"/>
<path d="M27.752 51.1618L16.6749 51.1618L16.6749 48.3926L27.752 48.3926L27.752 51.1618Z" fill="#985703"/>
<path d="M37.4473 51.1618L48.5243 51.1618L48.5243 48.3926L37.4473 48.3926L37.4473 51.1618Z" fill="#985703"/>
<path d="M19.4434 26.9372H13.9049V24.168H19.4434V26.9372Z" fill="#C38902"/>
<path d="M45.7598 26.9294H51.2983V24.1602H45.7598V26.9294Z" fill="#C38902"/>
<path d="M24.9902 24.1599H19.4517V21.3906H24.9902V24.1599Z" fill="#C38902"/>
<path d="M40.2168 24.1599H45.7553V21.3906H40.2168V24.1599Z" fill="#C38902"/>
<path d="M27.0625 21.3933H24.9856V19.3164H27.0625V21.3933Z" fill="#C38902"/>
<path d="M38.1367 21.3894H40.2137V19.3125H38.1367V21.3894Z" fill="#C38902"/>
<path d="M29.8281 48.3894H27.0589V46.3125H29.8281V48.3894Z" fill="#985703"/>
<path d="M35.3672 46.3156H38.1364V48.3926H35.3672V46.3156Z" fill="#985703"/>
<path d="M35.3672 46.3142H29.8287V43.5449H35.3672V46.3142Z" fill="#985703"/>
<path d="M29.8278 13.7754L29.8278 19.3139L27.0586 19.3139L27.0586 13.7754L29.8278 13.7754Z" fill="#C38902"/>
<path d="M35.3675 13.7695L35.3675 19.308L38.1367 19.308L38.1367 13.7695L35.3675 13.7695Z" fill="#C38902"/>
<path d="M35.375 13.7693H29.8365V11H35.375V13.7693Z" fill="#C38902"/>
<path d="M21.5203 35.2383L21.5203 40.7768L19.4434 40.7768L19.4434 35.2383L21.5203 35.2383Z" fill="#985800"/>
<path d="M24.2927 35.2324L24.2927 40.7709L21.5234 40.7709L21.5234 35.2324L24.2927 35.2324Z" fill="#F9E101"/>
<path d="M43.6794 35.2324L43.6794 40.7709L40.9102 40.7709L40.9102 35.2324L43.6794 35.2324Z" fill="#F9E101"/>
<path d="M35.375 15.8601H29.8365V13.7832H35.375V15.8601Z" fill="#F9E101"/>
<path d="M35.3672 19.3073H29.8287V15.8457H35.3672V19.3073Z" fill="#FEFF04"/>
<path d="M35.3672 27.6159H29.8287V24.1543H35.3672V27.6159Z" fill="#FEFF04"/>
<path d="M38.1367 43.5427H27.0597V40.7734H38.1367V43.5427Z" fill="#F9E101"/>
<path d="M27.0625 48.3894H24.2932V46.3125H27.0625V48.3894Z" fill="#C98604"/>
<path d="M43.6828 43.5449L43.6828 40.7757L45.7598 40.7757L45.7598 43.5449L43.6828 43.5449Z" fill="#C98604"/>
<path d="M38.1367 35.2302H35.3675V32.4609H38.1367V35.2302Z" fill="#C98604"/>
<path d="M29.8281 35.236H27.0589V32.4668H29.8281V35.236Z" fill="#C98604"/>
<path d="M29.8281 33.1569H27.0589V29.6953H29.8281V33.1569Z" fill="black"/>
<path d="M38.1426 33.1569H35.3733V29.6953H38.1426V33.1569Z" fill="black"/>
<path d="M21.5203 32.4707V35.24H19.4434V32.4707H21.5203Z" fill="#C98604"/>
<path d="M19.4489 29.6953L19.4489 32.4646L16.6797 32.4646L16.6797 29.6953L19.4489 29.6953Z" fill="#C98604"/>
<path d="M16.6755 26.9316L16.6755 29.7009L13.9063 29.7009L13.9062 26.9316L16.6755 26.9316Z" fill="#FEFF04"/>
<path d="M19.4489 26.9316L19.4489 29.7009L16.6797 29.7009L16.6797 26.9316L19.4489 26.9316Z" fill="#FEFF04"/>
<path d="M22.2185 29.7012L22.2185 32.4704L19.4492 32.4704L19.4492 29.7012L22.2185 29.7012Z" fill="#FEFF04"/>
<path d="M51.2936 26.9238L51.2936 29.6931L47.832 29.6931L47.832 26.9238L51.2936 26.9238Z" fill="#FEFF04"/>
<path d="M48.5212 26.9316L48.5212 29.7009L45.752 29.7009L45.752 26.9316L48.5212 26.9316Z" fill="#FEFF04"/>
<path d="M45.7575 29.6953L45.7575 32.4646L42.9883 32.4646L42.9883 29.6953L45.7575 29.6953Z" fill="#FEFF04"/>
<path d="M48.5212 29.7012L48.5212 32.4704L45.752 32.4704L45.752 29.7012L48.5212 29.7012Z" fill="#C98604"/>
<path d="M43.6828 35.2324L43.6828 32.4632L45.7598 32.4632L45.7598 35.2324L43.6828 35.2324Z" fill="#C98604"/>
<path d="M21.5262 40.7734V43.5427H19.4492V40.7734H21.5262Z" fill="#C98604"/>
<path d="M24.2852 48.3894H21.5159V46.3125H24.2852V48.3894Z" fill="#F3AE09"/>
<path d="M19.4524 46.3125L19.4524 43.5432L21.5293 43.5432L21.5293 46.3125L19.4524 46.3125Z" fill="#F3AE09"/>
<path d="M29.8203 46.3142H27.0511V43.5449H29.8203V46.3142Z" fill="#F3AE09"/>
<path d="M43.6828 46.3164L43.6828 43.5472L45.7598 43.5472L45.7598 46.3164L43.6828 46.3164Z" fill="#F3AE09"/>
<path d="M38.1367 46.32H35.3675V43.5508H38.1367V46.32Z" fill="#F3AE09"/>
<path d="M43.6797 48.3933H40.9104V46.3164H43.6797V48.3933Z" fill="#F3AE09"/>
<path d="M38.1426 38.0075H35.3733V35.2383H38.1426V38.0075Z" fill="#F3AE09"/>
<path d="M29.834 38.0017H27.0647V35.2324H29.834V38.0017Z" fill="#F3AE09"/>
<path d="M24.2849 40.7773L24.2849 46.3158L21.5156 46.3158L21.5156 40.7773L24.2849 40.7773Z" fill="#FEFF04"/>
<path d="M43.6794 40.7773L43.6794 46.3158L40.9102 46.3158L40.9102 40.7773L43.6794 40.7773Z" fill="#FEFF04"/>
<path d="M40.9118 35.2383L40.9118 40.7768L38.1426 40.7768L38.1426 35.2383L40.9118 35.2383Z" fill="#FEFF04"/>
<path d="M43.6811 29.6953L43.6811 35.2338L38.1426 35.2338L38.1426 29.6953L43.6811 29.6953Z" fill="#FEFF04"/>
<path d="M27.0619 29.7012L27.0619 35.2397L21.5234 35.2397L21.5234 29.7012L27.0619 29.7012Z" fill="#FEFF04"/>
<path d="M29.8281 24.168L29.8281 29.7065L19.4434 29.7065L19.4434 24.168L29.8281 24.168Z" fill="#FEFF04"/>
<path d="M45.7519 24.1543L45.7519 29.6928L35.3672 29.6928L35.3672 24.1543L45.7519 24.1543Z" fill="#FEFF04"/>
<path d="M27.0544 35.2383L27.0544 40.7768L24.2852 40.7768L24.2852 35.2383L27.0544 35.2383Z" fill="#FEFF04"/>
<path d="M30.5202 38.002L30.5202 40.7712L27.0586 40.7712L27.0586 38.002L30.5202 38.002Z" fill="#FEFF04"/>
<path d="M38.1452 38.0078L38.1452 40.7771L34.6836 40.7771L34.6836 38.0078L38.1452 38.0078Z" fill="#FEFF04"/>
<path d="M27.0681 40.7734L27.0681 46.3119L24.2988 46.3119L24.2988 40.7734L27.0681 40.7734Z" fill="#FEFF04"/>
<path d="M40.906 40.7734L40.906 46.3119L38.1367 46.3119L38.1367 40.7734L40.906 40.7734Z" fill="#FEFF04"/>
<path d="M35.3672 29.7009L29.8287 29.7009L29.8287 26.9316L35.3672 26.9316L35.3672 29.7009Z" fill="#FEFF04"/>
<path d="M40.2168 24.1599H24.9859V21.3906H40.2168V24.1599Z" fill="#FEFF04"/>
<path d="M38.1367 21.3894H27.0597V19.3125H38.1367V21.3894Z" fill="#FEFF04"/>
<path d="M35.3672 31.7781L29.8287 31.7781L29.8287 29.7012L35.3672 29.7012L35.3672 31.7781Z" fill="#FEFF04"/>
<path d="M35.3672 34.5505L29.8287 34.5505L29.8287 31.7812L35.3672 31.7812L35.3672 34.5505Z" fill="#FEFF04"/>
<path d="M35.375 36.6199L29.8365 36.6199L29.8365 34.543L35.375 34.543L35.375 36.6199Z" fill="#FEFF04"/>
<path d="M35.3672 39.3943L29.8287 39.3943L29.8287 36.625L35.3672 36.625L35.3672 39.3943Z" fill="#FEFF04"/>
<path d="M35.3613 40.7762L29.8228 40.7762L29.8228 38.6992L35.3613 38.6992L35.3613 40.7762Z" fill="#FEFF04"/>
<path d="M45.7598 48.3933H43.6828V46.3164H45.7598V48.3933Z" fill="#FEFF04"/>
<path d="M21.5293 48.3894H19.4524V46.3125H21.5293V48.3894Z" fill="#FEFF04"/>
<path d="M40.9102 48.3894H38.1409V46.3125H40.9102V48.3894Z" fill="#C98604"/>
<path d="M24.9902 26.9235H22.221V24.1543H24.9902V26.9235Z" fill="white"/>
<path d="M29.8281 21.3933H27.0589V19.3164H29.8281V21.3933Z" fill="white"/>
<path d="M38.1367 21.3894H35.3675V19.3125H38.1367V21.3894Z" fill="white"/>
<path d="M42.9883 26.9294H40.219V24.1602H42.9883V26.9294Z" fill="white"/>
<path d="M40.2168 24.1599H38.1399V21.3906H40.2168V24.1599Z" fill="#F9DF06"/>
<path d="M27.0625 24.1677H24.9856V21.3984H27.0625V24.1677Z" fill="#F9DF06"/>
<path d="M13.9104 29.6953L13.9104 26.9261L16.6797 26.9261L16.6797 29.6953L13.9104 29.6953Z" fill="#F9DF06"/>
<path d="M19.4465 32.4668L19.4465 29.6975L21.5234 29.6975L21.5234 32.4668L19.4465 32.4668Z" fill="#F9DF06"/>
<path d="M19.4524 48.3867L19.4524 46.3098L21.5293 46.3098L21.5293 48.3867L19.4524 48.3867Z" fill="#F9DF06"/>
<path d="M27.0684 46.32L24.2991 46.32L24.2991 43.5508L27.0684 43.5508L27.0684 46.32Z" fill="#F9DF06"/>
<path d="M38.1426 43.5432L40.9118 43.5432L40.9118 46.3125L38.1426 46.3125L38.1426 43.5432Z" fill="#F9DF06"/>
<path d="M43.6887 32.4668L43.6887 29.6975L45.7656 29.6975L45.7656 32.4668L43.6887 32.4668Z" fill="#F9DF06"/>
<path d="M48.5296 29.707L48.5296 26.9378L51.2988 26.9378L51.2988 29.707L48.5296 29.707Z" fill="#F9DF06"/>
<path d="M19.4489 26.9316V29.7009H16.6797V26.9316H19.4489Z" fill="#FBFF62"/>
<path d="M22.207 26.9294L19.4378 26.9294L19.4378 24.1602L22.207 24.1602L22.207 26.9294Z" fill="#FBFF62"/>
<path d="M27.0684 26.9294L24.9914 26.9294L24.9914 24.1602L27.0684 24.1602L27.0684 26.9294Z" fill="#FBFF62"/>
<path d="M38.1367 26.9294L40.2137 26.9294L40.2137 24.1602L38.1367 24.1602L38.1367 26.9294Z" fill="#FBFF62"/>
<path d="M29.8281 24.154L27.0589 24.154L27.0589 21.3848L29.8281 21.3848L29.8281 24.154Z" fill="#FBFF62"/>
<path d="M35.375 24.1677L38.1443 24.1677L38.1443 21.3984L35.375 21.3984L35.375 24.1677Z" fill="#FBFF62"/>
<path d="M42.9883 26.9294L45.7575 26.9294L45.7575 24.1602L42.9883 24.1602L42.9883 26.9294Z" fill="#FBFF62"/>
<path d="M48.5212 26.9316L48.5212 29.7009L45.752 29.7009L45.752 26.9316L48.5212 26.9316Z" fill="#FBFF62"/>
<path d="M14.2169 43.7194C10.7471 39.0778 13.4292 35.9146 15.2039 34.9132L16.5 34.5C13.4232 37.3741 10.9531 43.1201 21.506 45.8859C32.0589 48.6517 43.0908 44.82 47.2875 42.5584C46.6478 41.4621 45.474 39.172 45.8963 38.7811C46.3186 38.3902 48.9773 38.8087 50.254 39.0669C50.8101 38.3819 52.0681 37.0264 52.6511 37.0836C53.2341 37.1409 53.4116 39.377 53.4276 40.4879C54.4185 40.7748 56.4206 41.5498 56.5018 42.354C56.583 43.1582 54.4614 44.0594 53.3905 44.4096C53.4443 45.4198 53.3579 47.5179 52.5812 47.8285C51.8045 48.139 50.2839 46.5125 49.6207 45.6604C32.2442 52.2027 18.5541 49.5213 14.2169 43.7194Z" fill="url(#paint1_linear_2089_32564)" stroke="black" stroke-width="0.5"/>
<defs>
<linearGradient id="paint0_linear_2089_32564" x1="32.5" y1="0" x2="32.5" y2="65" gradientUnits="userSpaceOnUse">
<stop offset="0.0001" stop-color="white"/>
<stop offset="1" stop-color="#5DABFF"/>
</linearGradient>
<linearGradient id="paint1_linear_2089_32564" x1="35.3836" y1="49.5848" x2="33.6861" y2="32.7655" gradientUnits="userSpaceOnUse">
<stop stop-color="white"/>
<stop offset="0.173077" stop-color="#FFFCD2"/>
<stop offset="0.701923" stop-color="#FDEF3F"/>
<stop offset="0.927885" stop-color="white"/>
</linearGradient>
</defs>
</svg>
