<svg width="35" height="35" viewBox="0 0 35 35" fill="none" xmlns="http://www.w3.org/2000/svg">
<rect width="35" height="35" rx="10" fill="#007BFF"/>
<path d="M6.24999 13.1914L6.24999 16.639L5 16.639L5 13.1914L6.24999 13.1914Z" fill="#FFD83D"/>
<path d="M28.75 13.1914L28.75 16.639L30 16.639L30 13.1914L28.75 13.1914Z" fill="#FFD83D"/>
<path d="M10.834 20.0859L10.834 23.5335L9.58398 23.5335L9.58398 20.0859L10.834 20.0859Z" fill="#FFD83D"/>
<path d="M24.1719 20.082L24.1719 23.5296L25.4219 23.5296L25.4219 20.082L24.1719 20.082Z" fill="#FFD83D"/>
<path d="M7.91666 16.6387L7.91666 18.3624L6.25 18.3624L6.25 16.6387L7.91666 16.6387Z" fill="#FFD83D"/>
<path d="M27.0873 16.6445L27.0873 18.3683L28.7539 18.3683L28.7539 16.6445L27.0873 16.6445Z" fill="#FFD83D"/>
<path d="M25.4193 18.3613L25.4193 20.0851L27.0859 20.0851L27.0859 18.3613L25.4193 18.3613Z" fill="#FFD83D"/>
<path d="M9.58462 23.5352L9.58462 29.9993L7.91797 29.9993L7.91797 23.5352L9.58462 23.5352Z" fill="#FFD83D"/>
<path d="M25.4193 23.5352L25.4193 29.9993L27.0859 29.9993L27.0859 23.5352L25.4193 23.5352Z" fill="#FFD83D"/>
<path d="M14.5859 29.9992L7.91932 29.9992L7.91932 28.2754L14.5859 28.2754L14.5859 29.9992Z" fill="#FFD83D"/>
<path d="M20.418 29.9992L27.0846 29.9992L27.0846 28.2754L20.418 28.2754L20.418 29.9992Z" fill="#FFD83D"/>
<path d="M9.58398 14.921H6.25067V13.1973H9.58398V14.921Z" fill="#FFB200"/>
<path d="M25.4219 14.9152H28.7552V13.1914H25.4219V14.9152Z" fill="#FFB200"/>
<path d="M12.9219 13.1925H9.58856V11.4688H12.9219V13.1925Z" fill="#FFB200"/>
<path d="M22.0859 13.1925H25.4192V11.4688H22.0859V13.1925Z" fill="#FFB200"/>
<path d="M14.168 11.4686H12.918V10.1758H14.168V11.4686Z" fill="#FFB200"/>
<path d="M20.8359 11.4667H22.0859V10.1738H20.8359V11.4667Z" fill="#FFB200"/>
<path d="M15.834 28.2733H14.1673V26.9805H15.834V28.2733Z" fill="#FFD83D"/>
<path d="M19.166 26.9826H20.8327V28.2754H19.166V26.9826Z" fill="#FFD83D"/>
<path d="M19.166 26.9816H15.8327V25.2578H19.166V26.9816Z" fill="#FFD83D"/>
<path d="M15.8307 6.72852L15.8307 10.1761L14.1641 10.1761L14.1641 6.72852L15.8307 6.72852Z" fill="#FFB200"/>
<path d="M19.1693 6.72461L19.1693 10.1722L20.8359 10.1722L20.8359 6.72461L19.1693 6.72461Z" fill="#FFB200"/>
<path d="M19.1719 6.72378H15.8386V5H19.1719V6.72378Z" fill="#FFB200"/>
<path d="M10.834 20.0859L10.834 23.5335L9.58398 23.5335L9.58398 20.0859L10.834 20.0859Z" fill="#FFD83D"/>
<path d="M12.5026 20.082L12.5026 23.5296L10.8359 23.5296L10.8359 20.082L12.5026 20.082Z" fill="#F9E101"/>
<path d="M24.1706 20.082L24.1706 23.5296L22.5039 23.5296L22.5039 20.082L24.1706 20.082Z" fill="#F9E101"/>
<path d="M19.1719 8.02721H15.8386V6.73438H19.1719V8.02721Z" fill="#F9E101"/>
<path d="M19.166 10.1703H15.8327V8.01562H19.166V10.1703Z" fill="#FEFF04"/>
<path d="M19.166 15.3422H15.8327V13.1875H19.166V15.3422Z" fill="#FEFF04"/>
<path d="M20.8359 25.2589H14.1693V23.5352H20.8359V25.2589Z" fill="#F9E101"/>
<path d="M14.168 28.2733H12.5013V26.9805H14.168V28.2733Z" fill="#FFC85E"/>
<path d="M24.1719 25.2578L24.1719 23.534L25.4219 23.534L25.4219 25.2578L24.1719 25.2578Z" fill="#FFC85E"/>
<path d="M20.8359 20.0832H19.1693V18.3594H20.8359V20.0832Z" fill="#FFC85E"/>
<path d="M15.834 20.0851H14.1673V18.3613H15.834V20.0851Z" fill="#FFC85E"/>
<path d="M15.834 18.7934H14.1673V16.6387H15.834V18.7934Z" fill="black"/>
<path d="M20.8379 18.7934H19.1712V16.6387H20.8379V18.7934Z" fill="black"/>
<path d="M10.834 18.3652V20.089H9.58398V18.3652H10.834Z" fill="#FFC85E"/>
<path d="M9.58462 16.6387L9.58462 18.3624L7.91797 18.3624L7.91797 16.6387L9.58462 16.6387Z" fill="#FFC85E"/>
<path d="M7.91666 14.916L7.91666 16.6398L6.25 16.6398L6.25 14.916L7.91666 14.916Z" fill="#FEFF04"/>
<path d="M9.58462 14.916L9.58462 16.6398L7.91797 16.6398L7.91797 14.916L9.58462 14.916Z" fill="#FEFF04"/>
<path d="M11.2545 16.6406L11.2545 18.3644L9.58789 18.3644L9.58789 16.6406L11.2545 16.6406Z" fill="#FEFF04"/>
<path d="M28.7513 14.9121L28.7513 16.6359L26.668 16.6359L26.668 14.9121L28.7513 14.9121Z" fill="#FEFF04"/>
<path d="M27.0827 14.916L27.0827 16.6398L25.416 16.6398L25.416 14.916L27.0827 14.916Z" fill="#FEFF04"/>
<path d="M25.4206 16.6387L25.4206 18.3624L23.7539 18.3624L23.7539 16.6387L25.4206 16.6387Z" fill="#FEFF04"/>
<path d="M27.0827 16.6406L27.0827 18.3644L25.416 18.3644L25.416 16.6406L27.0827 16.6406Z" fill="#FFC85E"/>
<path d="M24.1719 20.082L24.1719 18.3583L25.4219 18.3583L25.4219 20.082L24.1719 20.082Z" fill="#FFC85E"/>
<path d="M10.8379 23.5352V25.2589H9.58789V23.5352H10.8379Z" fill="#FFC85E"/>
<path d="M12.4961 28.2733H10.8294V26.9805H12.4961V28.2733Z" fill="#FFEF74"/>
<path d="M9.5879 26.9805L9.5879 25.2567L10.8379 25.2567L10.8379 26.9805L9.5879 26.9805Z" fill="#FFEF74"/>
<path d="M15.8281 26.9816H14.1615V25.2578H15.8281V26.9816Z" fill="#FFEF74"/>
<path d="M24.1719 26.9824L24.1719 25.2586L25.4219 25.2586L25.4219 26.9824L24.1719 26.9824Z" fill="#FFEF74"/>
<path d="M20.8359 26.9835H19.1693V25.2598H20.8359V26.9835Z" fill="#FFEF74"/>
<path d="M24.168 28.2753H22.5013V26.9824H24.168V28.2753Z" fill="#FFEF74"/>
<path d="M20.8379 21.8097H19.1712V20.0859H20.8379V21.8097Z" fill="#FFEF74"/>
<path d="M15.8379 21.8058H14.1712V20.082H15.8379V21.8058Z" fill="#FFEF74"/>
<path d="M12.4987 23.5352L12.4987 26.9827L10.832 26.9827L10.832 23.5352L12.4987 23.5352Z" fill="#FEFF04"/>
<path d="M24.1706 23.5352L24.1706 26.9827L22.5039 26.9827L22.5039 23.5352L24.1706 23.5352Z" fill="#FEFF04"/>
<path d="M22.5045 20.0859L22.5045 23.5335L20.8379 23.5335L20.8379 20.0859L22.5045 20.0859Z" fill="#FEFF04"/>
<path d="M24.1712 16.6387L24.1712 20.0862L20.8379 20.0862L20.8379 16.6387L24.1712 16.6387Z" fill="#FEFF04"/>
<path d="M14.1692 16.6406L14.1692 20.0882L10.8359 20.0882L10.8359 16.6406L14.1692 16.6406Z" fill="#FEFF04"/>
<path d="M15.8339 13.1973L15.8339 16.6448L9.58398 16.6448L9.58398 13.1973L15.8339 13.1973Z" fill="#FEFF04"/>
<path d="M25.416 13.1875L25.416 16.6351L19.166 16.6351L19.166 13.1875L25.416 13.1875Z" fill="#FEFF04"/>
<path d="M14.1627 20.0859L14.1627 23.5335L12.4961 23.5335L12.4961 20.0859L14.1627 20.0859Z" fill="#FEFF04"/>
<path d="M16.2474 21.8086L16.2474 23.5324L14.1641 23.5324L14.1641 21.8086L16.2474 21.8086Z" fill="#FEFF04"/>
<path d="M20.8372 21.8125L20.8372 23.5363L18.7539 23.5363L18.7539 21.8125L20.8372 21.8125Z" fill="#FEFF04"/>
<path d="M14.1706 23.5352L14.1706 26.9827L12.5039 26.9827L12.5039 23.5352L14.1706 23.5352Z" fill="#FEFF04"/>
<path d="M22.5026 23.5352L22.5026 26.9827L20.8359 26.9827L20.8359 23.5352L22.5026 23.5352Z" fill="#FEFF04"/>
<path d="M19.166 16.6398L15.8327 16.6398L15.8327 14.916L19.166 14.916L19.166 16.6398Z" fill="#FEFF04"/>
<path d="M22.0859 13.1925H12.9193V11.4688H22.0859V13.1925Z" fill="#FEFF04"/>
<path d="M20.8359 11.4667H14.1693V10.1738H20.8359V11.4667Z" fill="#FEFF04"/>
<path d="M19.166 17.9335L15.8327 17.9335L15.8327 16.6406L19.166 16.6406L19.166 17.9335Z" fill="#FEFF04"/>
<path d="M19.166 19.6593L15.8327 19.6593L15.8327 17.9355L19.166 17.9355L19.166 19.6593Z" fill="#FEFF04"/>
<path d="M19.1719 20.9491L15.8386 20.9491L15.8386 19.6562L19.1719 19.6562L19.1719 20.9491Z" fill="#FEFF04"/>
<path d="M19.166 22.6749L15.8327 22.6749L15.8327 20.9512L19.166 20.9512L19.166 22.6749Z" fill="#FEFF04"/>
<path d="M19.1621 23.535L15.8288 23.535L15.8288 22.2422L19.1621 22.2422L19.1621 23.535Z" fill="#FEFF04"/>
<path d="M25.4219 28.2753H24.1719V26.9824H25.4219V28.2753Z" fill="#FEFF04"/>
<path d="M10.8379 28.2733H9.5879V26.9805H10.8379V28.2733Z" fill="#FEFF04"/>
<path d="M22.5039 28.2733H20.8373V26.9805H22.5039V28.2733Z" fill="#FFC85E"/>
<path d="M12.9219 14.9113H11.2552V13.1875H12.9219V14.9113Z" fill="white"/>
<path d="M15.834 11.4686H14.1673V10.1758H15.834V11.4686Z" fill="white"/>
<path d="M20.8359 11.4667H19.1693V10.1738H20.8359V11.4667Z" fill="white"/>
<path d="M23.7539 14.9152H22.0873V13.1914H23.7539V14.9152Z" fill="white"/>
<path d="M22.0859 13.1925H20.8359V11.4688H22.0859V13.1925Z" fill="#F9DF06"/>
<path d="M14.168 13.1945H12.918V11.4707H14.168V13.1945Z" fill="#F9DF06"/>
<path d="M6.25131 16.6387L6.25131 14.9149L7.91797 14.9149L7.91797 16.6387L6.25131 16.6387Z" fill="#F9DF06"/>
<path d="M9.58595 18.3613L9.58595 16.6376L10.8359 16.6376L10.8359 18.3613L9.58595 18.3613Z" fill="#F9DF06"/>
<path d="M9.5879 28.2734L9.5879 26.9806L10.8379 26.9806L10.8379 28.2734L9.5879 28.2734Z" fill="#F9DF06"/>
<path d="M14.1719 26.9835L12.5052 26.9835L12.5052 25.2598L14.1719 25.2598L14.1719 26.9835Z" fill="#F9DF06"/>
<path d="M20.8379 25.2567L22.5045 25.2567L22.5045 26.9805L20.8379 26.9805L20.8379 25.2567Z" fill="#F9DF06"/>
<path d="M24.1758 18.3613L24.1758 16.6376L25.4258 16.6376L25.4258 18.3613L24.1758 18.3613Z" fill="#F9DF06"/>
<path d="M27.0873 16.6445L27.0873 14.9208L28.7539 14.9208L28.7539 16.6445L27.0873 16.6445Z" fill="#F9DF06"/>
<path d="M9.58462 14.916V16.6398H7.91797V14.916H9.58462Z" fill="#FBFF62"/>
<path d="M11.2461 14.9152L9.57944 14.9152L9.57944 13.1914L11.2461 13.1914L11.2461 14.9152Z" fill="#FBFF62"/>
<path d="M14.1719 14.9152L12.9219 14.9152L12.9219 13.1914L14.1719 13.1914L14.1719 14.9152Z" fill="#FBFF62"/>
<path d="M20.8359 14.9152L22.0859 14.9152L22.0859 13.1914L20.8359 13.1914L20.8359 14.9152Z" fill="#FBFF62"/>
<path d="M15.834 13.1886L14.1673 13.1886L14.1673 11.4648L15.834 11.4648L15.834 13.1886Z" fill="#FBFF62"/>
<path d="M19.1719 13.1945L20.8385 13.1945L20.8385 11.4707L19.1719 11.4707L19.1719 13.1945Z" fill="#FBFF62"/>
<path d="M23.7539 14.9152L25.4206 14.9152L25.4206 13.1914L23.7539 13.1914L23.7539 14.9152Z" fill="#FBFF62"/>
<path d="M27.0827 14.916L27.0827 16.6398L25.416 16.6398L25.416 14.916L27.0827 14.916Z" fill="#FBFF62"/>
<g filter="url(#filter0_d_2252_21593)">
<path d="M8.01909 25.6172C5.68071 23.125 6.99627 21.079 7.94635 20.3675L9.21531 19.5549C7.65116 21.458 6.09402 25.4894 12.3787 26.3901C18.6634 27.2907 24.7434 24.2763 26.9978 22.6564C26.5492 22.0554 25.7056 20.7887 25.9206 20.5296C26.1355 20.2705 27.6986 20.3337 28.4533 20.3976C28.724 19.9563 29.3504 19.072 29.6906 19.0655C30.0309 19.0591 30.2962 20.3626 30.3863 21.0152C30.9784 21.1158 32.189 21.4339 32.2944 21.9015C32.3998 22.3692 31.2425 23.0456 30.6507 23.3254C30.7554 23.9161 30.8584 25.1567 30.4333 25.3929C30.0082 25.6291 29.0132 24.7768 28.5688 24.321C19.029 29.3675 10.9421 28.7325 8.01909 25.6172Z" fill="url(#paint0_linear_2252_21593)"/>
<path d="M8.01909 25.6172C5.68071 23.125 6.99627 21.079 7.94635 20.3675L9.21531 19.5549C7.65116 21.458 6.09402 25.4894 12.3787 26.3901C18.6634 27.2907 24.7434 24.2763 26.9978 22.6564C26.5492 22.0554 25.7056 20.7887 25.9206 20.5296C26.1355 20.2705 27.6986 20.3337 28.4533 20.3976C28.724 19.9563 29.3504 19.072 29.6906 19.0655C30.0309 19.0591 30.2962 20.3626 30.3863 21.0152C30.9784 21.1158 32.189 21.4339 32.2944 21.9015C32.3998 22.3692 31.2425 23.0456 30.6507 23.3254C30.7554 23.9161 30.8584 25.1567 30.4333 25.3929C30.0082 25.6291 29.0132 24.7768 28.5688 24.321C19.029 29.3675 10.9421 28.7325 8.01909 25.6172Z" stroke="black" stroke-width="0.5"/>
</g>
<path d="M9.58853 18.3613L9.58853 20.0851L7.92187 20.0851L7.92188 18.3613L9.58853 18.3613Z" fill="#FFD83D"/>
<defs>
<filter id="filter0_d_2252_21593" x="5.45898" y="18.8164" width="27.0918" height="9.46875" filterUnits="userSpaceOnUse" color-interpolation-filters="sRGB">
<feFlood flood-opacity="0" result="BackgroundImageFix"/>
<feColorMatrix in="SourceAlpha" type="matrix" values="0 0 0 0 0 0 0 0 0 0 0 0 0 0 0 0 0 0 127 0" result="hardAlpha"/>
<feOffset dx="-1"/>
<feComposite in2="hardAlpha" operator="out"/>
<feColorMatrix type="matrix" values="0 0 0 0 0 0 0 0 0 0 0 0 0 0 0 0 0 0 1 0"/>
<feBlend mode="normal" in2="BackgroundImageFix" result="effect1_dropShadow_2252_21593"/>
<feBlend mode="normal" in="SourceGraphic" in2="effect1_dropShadow_2252_21593" result="shape"/>
</filter>
<linearGradient id="paint0_linear_2252_21593" x1="6.14328" y1="20.6385" x2="27.5518" y2="11.7091" gradientUnits="userSpaceOnUse">
<stop stop-color="white"/>
<stop offset="0.173077" stop-color="#FFFCD2"/>
<stop offset="0.701923" stop-color="#FDEF3F"/>
<stop offset="0.927885" stop-color="white"/>
</linearGradient>
</defs>
</svg>
