<svg xmlns="http://www.w3.org/2000/svg" width="145" height="94" fill="none"><circle cx="141.479" cy="20.479" r="2.847" stroke="#7F80FE" transform="rotate(2.306 141.479 20.479)"/><path stroke="#7F80FE" d="M3.593 54.63c1.587.061 2.793 1.349 2.73 2.841-.062 1.493-1.37 2.683-2.958 2.622-1.587-.062-2.793-1.35-2.73-2.843.062-1.492 1.37-2.682 2.958-2.62Z"/><path fill="#7F80FE" d="m138.189 88.826-2.448 1.177-.033 2.642-1.915-1.885-2.611.785 1.264-2.342-1.579-2.156 2.696.437 1.634-2.117.402 2.612z"/><rect width="107.49" height="65.643" x="29.635" y="4.247" fill="url(#a)" stroke="#222" stroke-width=".41" rx="5.949" transform="rotate(13.349 29.635 4.247)"/><path fill="#656565" d="m51.949 17.711-.21-.05.4-1.693.211.05zm.728-1.616.21.05-.357 1.506.786.187-.045.187-.996-.236zm1.229.292.21.05-.357 1.506.786.187-.044.187-.997-.237zm1.038 2.035-.21-.05.401-1.693.21.05zm.634-1.638 1.277.303-.044.187-.53-.126-.358 1.506-.213-.05.357-1.507-.533-.126zm3.093 1.292a.54.54 0 0 0-.117-.303.5.5 0 0 0-.278-.166.51.51 0 0 0-.54.198.9.9 0 0 0-.157.348.9.9 0 0 0-.016.382.55.55 0 0 0 .142.275q.107.108.266.147a.5.5 0 0 0 .266 0 .45.45 0 0 0 .212-.13.55.55 0 0 0 .125-.245l-.442-.105.044-.185.647.154-.043.182a.75.75 0 0 1-.175.343.63.63 0 0 1-.303.182.76.76 0 0 1-.378 0 .77.77 0 0 1-.373-.199.7.7 0 0 1-.192-.365 1.1 1.1 0 0 1 .016-.484q.063-.264.203-.438a.73.73 0 0 1 .334-.242.73.73 0 0 1 .41-.015q.178.042.308.147a.68.68 0 0 1 .259.57zm.62-.411.211.05-.357 1.506.786.187-.045.187-.996-.237zm2.393 1.462q-.062.262-.206.438a.74.74 0 0 1-.338.24.73.73 0 0 1-.412.014.74.74 0 0 1-.363-.198.74.74 0 0 1-.193-.366 1.1 1.1 0 0 1 .015-.483q.063-.264.203-.437a.74.74 0 0 1 .338-.242.74.74 0 0 1 .413-.014.73.73 0 0 1 .361.198q.145.147.195.367.048.22-.014.483m-1.294-.307a.9.9 0 0 0-.015.38q.035.17.14.277t.26.146q.156.037.297-.014a.55.55 0 0 0 .25-.184.9.9 0 0 0 .158-.347.9.9 0 0 0 .015-.381.52.52 0 0 0-.4-.421.53.53 0 0 0-.298.012.55.55 0 0 0-.249.184.9.9 0 0 0-.158.348m1.755-.478.594.141q.173.04.275.128.104.087.137.202a.46.46 0 0 1 .003.243.35.35 0 0 1-.13.218.43.43 0 0 1-.23.072l-.004.016a.33.33 0 0 1 .148.095.4.4 0 0 1 .096.177q.03.105 0 .233a.416.416 0 0 1-.342.333.8.8 0 0 1-.333-.019l-.616-.146zm.256 1.652q.188.044.295-.007a.24.24 0 0 0 .135-.17.3.3 0 0 0-.006-.17.33.33 0 0 0-.099-.145.4.4 0 0 0-.175-.088l-.415-.098-.138.582zm.155-.771q.092.021.175.004a.283.283 0 0 0 .222-.217.243.243 0 0 0-.088-.263.4.4 0 0 0-.17-.077l-.384-.09-.131.553zm.477 1.119 1.022-1.547.222.053.218 1.84-.222-.052-.056-.518-.68-.161-.284.437zm1.163-.424-.089-.821-.014-.004-.449.694zm.882-.88.21.05-.356 1.506.785.187-.044.187-.996-.237zm3.013 1.61q-.062.262-.205.437a.74.74 0 0 1-.338.24.73.73 0 0 1-.412.015.74.74 0 0 1-.363-.199.74.74 0 0 1-.193-.366 1.1 1.1 0 0 1 .014-.483q.063-.263.204-.437a.74.74 0 0 1 .338-.241.74.74 0 0 1 .413-.014q.216.051.361.198t.195.367q.048.22-.014.482m-1.293-.308a.9.9 0 0 0-.015.381q.035.17.14.276.105.108.26.146a.53.53 0 0 0 .547-.197.9.9 0 0 0 .158-.347.9.9 0 0 0 .015-.382.52.52 0 0 0-.4-.421.53.53 0 0 0-.298.012.55.55 0 0 0-.25.184.9.9 0 0 0-.157.348m1.755-.477 1.02.242-.044.187-.81-.192-.134.566.732.173-.044.185-.732-.174-.18.756-.21-.05zm1.285.305 1.02.242-.044.187-.81-.192-.134.566.732.173-.044.185-.732-.174-.179.756-.21-.05zm1.094 2.048-.21-.05.402-1.694.21.05zm1.757-.809a.454.454 0 0 0-.185-.38.55.55 0 0 0-.202-.092.53.53 0 0 0-.298.012.55.55 0 0 0-.249.184.9.9 0 0 0-.157.348.9.9 0 0 0-.015.381q.035.17.14.276.104.108.26.146.114.026.221.008a.446.446 0 0 0 .336-.254l.21.05a.7.7 0 0 1-.196.266.65.65 0 0 1-.286.135.8.8 0 0 1-.332-.008.74.74 0 0 1-.363-.199.74.74 0 0 1-.194-.366 1.1 1.1 0 0 1 .015-.483q.063-.263.204-.437a.74.74 0 0 1 .338-.241.74.74 0 0 1 .413-.015.8.8 0 0 1 .3.142q.128.1.194.249a.7.7 0 0 1 .057.328zm.393 1.319-.21-.05.401-1.693.21.05zm.181.043 1.022-1.546.222.052.218 1.84-.222-.052-.056-.517-.681-.162-.283.437zm1.163-.423-.089-.822-.014-.003-.449.694zm.882-.88.21.05-.357 1.506.786.186-.044.187-.997-.236zm1.783.422 1.02.242-.045.188-.81-.193-.133.567.732.173-.044.185-.732-.174-.18.756-.21-.05zm.525 1.914 1.022-1.546.222.052.218 1.84-.222-.052-.056-.517-.681-.162-.283.437zm1.163-.423-.089-.822-.014-.003-.449.694zm1.825 1.132-.2-.048-.605-1.537-.016-.003-.313 1.319-.21-.05.401-1.694.204.049.603 1.539.016.004.314-1.322.208.05zm1.757-.809a.455.455 0 0 0-.185-.38.55.55 0 0 0-.202-.092.53.53 0 0 0-.298.012.55.55 0 0 0-.249.184.9.9 0 0 0-.157.348.9.9 0 0 0-.015.381q.035.17.14.276t.26.146q.114.026.221.008a.445.445 0 0 0 .336-.254l.21.05a.7.7 0 0 1-.196.266.65.65 0 0 1-.286.135.8.8 0 0 1-.332-.008.74.74 0 0 1-.363-.199.74.74 0 0 1-.194-.366 1.1 1.1 0 0 1 .015-.483q.063-.263.204-.437a.74.74 0 0 1 .338-.241.74.74 0 0 1 .413-.014.8.8 0 0 1 .3.141q.128.1.194.249a.7.7 0 0 1 .057.328zm.584-.424.21.05-.357 1.506.786.186-.044.188-.997-.237zm2.549.604-.266 1.12a.588.588 0 0 1-.438.452.8.8 0 0 1-.365-.004.8.8 0 0 1-.328-.16.59.59 0 0 1-.188-.6l.265-1.12.211.05-.262 1.103a.45.45 0 0 0 .002.232q.03.108.12.188.09.077.227.11a.5.5 0 0 0 .251.003.4.4 0 0 0 .191-.114.46.46 0 0 0 .107-.206l.262-1.104zm.326.078.594.14q.172.041.275.129.104.087.137.202a.46.46 0 0 1 .003.243.35.35 0 0 1-.13.218.43.43 0 0 1-.23.072l-.004.016a.33.33 0 0 1 .148.094.4.4 0 0 1 .096.178q.03.105 0 .233a.417.417 0 0 1-.342.333.8.8 0 0 1-.334-.019l-.615-.146zm.255 1.651q.189.045.296-.006a.24.24 0 0 0 .134-.17.3.3 0 0 0-.005-.17.33.33 0 0 0-.1-.146.4.4 0 0 0-.175-.087l-.414-.098-.138.582zm.156-.77q.091.02.175.004a.283.283 0 0 0 .222-.217.243.243 0 0 0-.088-.263.4.4 0 0 0-.17-.077l-.384-.091-.132.554zm2.607.393a.54.54 0 0 0-.117-.303.5.5 0 0 0-.278-.166.51.51 0 0 0-.54.198.9.9 0 0 0-.158.348.9.9 0 0 0-.015.382.55.55 0 0 0 .142.276q.107.107.265.147a.5.5 0 0 0 .266-.002.45.45 0 0 0 .213-.13.55.55 0 0 0 .124-.244l-.442-.105.044-.185.648.154-.043.182a.75.75 0 0 1-.175.343.63.63 0 0 1-.303.183.76.76 0 0 1-.378 0 .77.77 0 0 1-.373-.2.72.72 0 0 1-.192-.365 1.1 1.1 0 0 1 .016-.484q.062-.264.202-.438a.73.73 0 0 1 .335-.242.73.73 0 0 1 .41-.014q.176.04.308.147a.68.68 0 0 1 .259.57zm.62-.41.21.05-.357 1.505.786.187-.044.187-.996-.236zm1.23.29.21.05-.357 1.507.785.187-.044.187-.996-.237zm1.037 2.036-.21-.05.402-1.694.21.05zm.635-1.638 1.277.303-.044.187-.531-.126-.358 1.506-.212-.05.357-1.507-.533-.126zm2.316.55.24 1.529.02.005.902-1.26.253.06-.402 1.694-.199-.047.304-1.28-.017-.003-.83 1.154-.187-.044-.222-1.404-.014-.004-.304 1.28-.199-.047.402-1.694zm1.741.412 1.027.244-.044.187-.817-.194-.134.566.762.181-.043.185-.763-.18-.135.568.828.196-.044.187-1.039-.246zm1.564.371.24 1.53.02.005.902-1.259.253.06-.402 1.694-.199-.048.304-1.279-.017-.004-.83 1.155-.187-.045-.222-1.404-.014-.003-.304 1.279-.199-.047.402-1.694zm1.741.414.594.14q.172.041.275.129a.4.4 0 0 1 .137.202.45.45 0 0 1 .003.242.34.34 0 0 1-.131.219.42.42 0 0 1-.229.071l-.004.017a.33.33 0 0 1 .148.094.4.4 0 0 1 .096.177.45.45 0 0 1-.001.234.46.46 0 0 1-.117.218.4.4 0 0 1-.225.114.8.8 0 0 1-.332-.018l-.616-.146zm.256 1.651q.188.045.295-.006a.24.24 0 0 0 .134-.17.3.3 0 0 0-.005-.17.33.33 0 0 0-.099-.146.4.4 0 0 0-.176-.087l-.414-.099-.138.583zm.155-.77a.4.4 0 0 0 .175.004.3.3 0 0 0 .142-.074.3.3 0 0 0 .08-.143.245.245 0 0 0-.089-.263.4.4 0 0 0-.169-.077l-.384-.091-.131.554zm1.024-.54 1.027.243-.044.187-.817-.194-.134.566.762.181-.043.185-.763-.181-.135.568.828.197-.044.187-1.039-.247zm1.311.31.576.137q.192.045.305.143.115.095.15.23a.6.6 0 0 1-.001.285.56.56 0 0 1-.15.279.46.46 0 0 1-.279.121l.216.788-.246-.059-.198-.742-.041-.009-.367-.087-.156.658-.211-.05zm.368.98q.197.045.305-.016.11-.062.148-.218.078-.335-.299-.424l-.356-.085-.156.658zm1.864 0a.25.25 0 0 0-.025-.155.3.3 0 0 0-.111-.121.5.5 0 0 0-.176-.075.5.5 0 0 0-.202-.01.3.3 0 0 0-.155.067.24.24 0 0 0-.081.133.21.21 0 0 0 .054.204.8.8 0 0 0 .208.15l.158.086a1 1 0 0 1 .301.235q.117.137.067.347a.47.47 0 0 1-.385.36.8.8 0 0 1-.347-.015.8.8 0 0 1-.3-.133.5.5 0 0 1-.171-.215.5.5 0 0 1-.028-.267l.216.051a.28.28 0 0 0 .026.17q.04.075.119.128a.6.6 0 0 0 .184.074.6.6 0 0 0 .218.012.35.35 0 0 0 .172-.071.26.26 0 0 0 .091-.148.2.2 0 0 0-.013-.141.3.3 0 0 0-.094-.113 1.3 1.3 0 0 0-.161-.103l-.195-.106a.8.8 0 0 1-.28-.244.37.37 0 0 1-.045-.3.43.43 0 0 1 .134-.23q.102-.09.249-.118a.74.74 0 0 1 .312.011.7.7 0 0 1 .276.128q.116.09.166.21t.024.247zm.584-.312.211.05-.179.753.896.213.179-.753.213.05-.402 1.694-.213-.05.179-.756-.896-.213-.179.756-.21-.05zm1.452 2.134-.21-.05.402-1.694.21.05zm.728-1.616.576.136a.7.7 0 0 1 .305.147.47.47 0 0 1 .147.237.6.6 0 0 1-.002.291.6.6 0 0 1-.129.262.47.47 0 0 1-.239.148.7.7 0 0 1-.336-.006l-.367-.087-.146.615-.21-.05zm.357 1.026q.193.045.307-.029a.38.38 0 0 0 .154-.235.37.37 0 0 0-.033-.278q-.07-.117-.263-.163l-.355-.084-.168.704z"/><path fill="#fff" d="m56.016 28.997 4.875 1.157-1.144 4.819-4.875-1.157zM80.237 34.746l4.875 1.157-1.144 4.819-4.875-1.157zM53.872 38.032l4.875 1.157-1.144 4.819-4.874-1.157zM78.092 43.78l4.875 1.157-1.144 4.819-4.874-1.157zM64.089 30.914l4.875 1.157-3.288 13.854-4.874-1.157zM72.164 32.829l4.875 1.157L73.75 47.84l-4.874-1.157zM89.988 37.058l4.875 1.157-3.288 13.854-4.875-1.157z"/><path fill="#fff" d="m97.657 43.652-1.144 4.82-14.015-3.326 1.144-4.82zM49.097 62.081l.48 3.06.042.01 1.803-2.518.505.12-.803 3.387-.398-.095.607-2.559-.033-.007-1.66 2.309-.374-.089-.445-2.809-.028-.006-.607 2.559-.398-.095.804-3.387zm3.654 4.5a1.2 1.2 0 0 1-.57-.306 1.13 1.13 0 0 1-.297-.558 1.6 1.6 0 0 1 .018-.722q.093-.392.309-.656.215-.262.516-.364.303-.1.647-.02.341.082.564.308.224.225.296.557.071.33-.021.724-.093.39-.306.653a1.1 1.1 0 0 1-.514.365q-.3.099-.642.018m-.447-1.49q-.06.262-.03.5.033.236.173.406a.7.7 0 0 0 .388.228.68.68 0 0 0 .445-.03.8.8 0 0 0 .332-.287q.136-.198.198-.46.063-.262.03-.5a.8.8 0 0 0-.168-.407.67.67 0 0 0-.383-.23.7.7 0 0 0-.45.032.8.8 0 0 0-.337.288 1.4 1.4 0 0 0-.198.46M54.75 67l-.402-.096.603-2.54.388.093-.095.397.033.008a.72.72 0 0 1 .353-.25.9.9 0 0 1 .493-.004.94.94 0 0 1 .428.215q.168.15.221.391.055.24-.02.556l-.383 1.614-.403-.095.377-1.586q.07-.295-.043-.497a.56.56 0 0 0-.384-.267.7.7 0 0 0-.352.004.57.57 0 0 0-.282.182.8.8 0 0 0-.17.35zm3.8-1.426-.533-.126-.35 1.473q-.055.221.015.323a.38.38 0 0 0 .227.135q.092.021.177.035l.064.012-.089.374a2 2 0 0 1-.285-.047.8.8 0 0 1-.32-.153.65.65 0 0 1-.206-.286.65.65 0 0 1-.014-.386l.374-1.577-.384-.09.08-.338.384.091.144-.608.407.097-.144.608.533.126zm.359 2.413-.402-.096.803-3.386.403.095-.296 1.244.033.008q.3-.384.85-.253.403.096.577.394.174.296.062.77l-.383 1.615-.403-.096.377-1.586q.07-.3-.045-.5t-.391-.265a.7.7 0 0 0-.361 0 .6.6 0 0 0-.29.181.8.8 0 0 0-.172.35zm2.599.617-.403-.096.804-3.387.402.096zm.576 1.144a5 5 0 0 1-.223-.062l.086-.36.194.055q.104.022.174.017a.3.3 0 0 0 .16-.07.9.9 0 0 0 .192-.227l.12-.174-.333-2.782.44.104.214 2.18.028.007 1.17-1.852.44.105-1.765 2.65q-.183.272-.404.37a.76.76 0 0 1-.493.04m4.875-3.428.48 3.058.042.01 1.803-2.517.505.12-.803 3.387-.398-.094.607-2.56-.032-.007-1.66 2.309-.374-.089-.446-2.808-.028-.007-.607 2.559-.398-.094.804-3.387zm3.682 4.505a1.24 1.24 0 0 1-.593-.311 1.1 1.1 0 0 1-.306-.554 1.6 1.6 0 0 1 .02-.717q.092-.39.306-.654.216-.267.515-.372.302-.106.644-.025.287.067.505.256a.98.98 0 0 1 .304.507q.09.32-.016.764l-.04.169-1.843-.438q-.053.267.003.478a.74.74 0 0 0 .208.35q.15.138.378.192.215.051.381.006a.6.6 0 0 0 .277-.157l.43.103a.9.9 0 0 1-.284.293 1 1 0 0 1-.404.141q-.228.03-.485-.03m1.013-1.375a.84.84 0 0 0 .004-.4.66.66 0 0 0-.178-.321.7.7 0 0 0-.338-.182.74.74 0 0 0-.727.22.9.9 0 0 0-.194.343zm1.087-.864.389.092-.095.398.033.008a.65.65 0 0 1 .332-.255.8.8 0 0 1 .453-.014q.246.06.39.211a.7.7 0 0 1 .186.38l.029.007a.75.75 0 0 1 .37-.246.95.95 0 0 1 .494-.003q.231.054.382.192.153.136.204.357.052.22-.017.51l-.403 1.698-.402-.096.402-1.693q.06-.265-.053-.425a.55.55 0 0 0-.339-.216.6.6 0 0 0-.316.001.5.5 0 0 0-.237.154.66.66 0 0 0-.136.274l-.392 1.651-.407-.096.412-1.736a.5.5 0 0 0-.005-.263.4.4 0 0 0-.135-.21.55.55 0 0 0-.243-.122.54.54 0 0 0-.303.015.6.6 0 0 0-.263.172.7.7 0 0 0-.154.305l-.376 1.586-.402-.096zm4.152.09.402.096-.296 1.25.033.007q.115-.111.199-.173a.7.7 0 0 1 .249-.101.84.84 0 0 1 .39.013q.318.076.525.295t.275.547q.067.33-.026.725a1.7 1.7 0 0 1-.303.665 1.1 1.1 0 0 1-.493.367 1.03 1.03 0 0 1-.597.027.9.9 0 0 1-.354-.161.7.7 0 0 1-.183-.211 2 2 0 0 1-.097-.244l-.047-.01-.092.388-.389-.092zm-.109 2.208a1.4 1.4 0 0 0-.035.526q.031.237.165.397.135.158.362.212a.66.66 0 0 0 .43-.031.77.77 0 0 0 .33-.285q.135-.198.203-.473.062-.273.03-.505a.75.75 0 0 0-.168-.393.67.67 0 0 0-.373-.217.68.68 0 0 0-.42.024.74.74 0 0 0-.325.271 1.4 1.4 0 0 0-.199.474m3.043 2.12a1.24 1.24 0 0 1-.594-.31 1.1 1.1 0 0 1-.305-.555 1.6 1.6 0 0 1 .019-.717q.091-.388.306-.653.216-.269.516-.372.3-.107.643-.026.288.069.505.256a.98.98 0 0 1 .305.507q.09.321-.016.765l-.04.168-1.843-.437q-.054.267.002.478a.74.74 0 0 0 .209.35q.15.137.377.191.215.05.381.007a.6.6 0 0 0 .277-.157l.43.102a.9.9 0 0 1-.284.293 1 1 0 0 1-.404.142q-.227.03-.484-.031m1.013-1.375a.84.84 0 0 0 .003-.4.66.66 0 0 0-.178-.32.7.7 0 0 0-.337-.182.74.74 0 0 0-.727.22.9.9 0 0 0-.195.342zm1.087-.863.388.092-.092.388.028.007a.62.62 0 0 1 .321-.25.76.76 0 0 1 .487-.01 2 2 0 0 1 .157.044l-.096.407a1 1 0 0 0-.237-.086.7.7 0 0 0-.343 0 .6.6 0 0 0-.28.159.6.6 0 0 0-.154.284l-.38 1.6-.402-.095zm2.835 1.37a.46.46 0 0 0-.112-.297.6.6 0 0 0-.32-.177.7.7 0 0 0-.287-.014.5.5 0 0 0-.226.095.287.287 0 0 0-.06.416.85.85 0 0 0 .295.218l.357.183q.32.16.448.373.128.211.067.476a.72.72 0 0 1-.213.367.8.8 0 0 1-.406.19 1.4 1.4 0 0 1-.558-.031q-.426-.099-.633-.343a.8.8 0 0 1-.175-.605l.421.1q-.016.382.452.493.278.066.461 0a.33.33 0 0 0 .23-.246.3.3 0 0 0-.048-.249.76.76 0 0 0-.282-.215l-.363-.18q-.311-.156-.445-.373a.6.6 0 0 1-.071-.471.7.7 0 0 1 .208-.358.8.8 0 0 1 .396-.188q.237-.045.514.02.257.061.433.195a.77.77 0 0 1 .31.713zm.824 2.181-.402-.095.803-3.387.403.095-.296 1.244.033.008q.3-.384.85-.252.403.094.577.393.174.296.062.77l-.383 1.615-.403-.096.377-1.586q.07-.3-.045-.5t-.391-.265a.7.7 0 0 0-.361 0 .6.6 0 0 0-.29.181.8.8 0 0 0-.172.35zm2.8-2.019.401.096-.602 2.54-.403-.096zm.3-.373a.3.3 0 0 1-.18-.125.269.269 0 0 1 .087-.377.28.28 0 0 1 .215-.033q.12.03.185.126a.26.26 0 0 1 .042.21.27.27 0 0 1-.132.169.29.29 0 0 1-.217.03m.647.598.388.092-.096.402.047.011q.112-.108.197-.173a.7.7 0 0 1 .251-.1.84.84 0 0 1 .39.013q.318.075.523.294.208.217.273.547.067.33-.027.725a1.7 1.7 0 0 1-.3.665q-.207.264-.49.368a1.02 1.02 0 0 1-.597.026.9.9 0 0 1-.353-.16.7.7 0 0 1-.184-.212 2 2 0 0 1-.098-.243l-.033-.008-.318 1.343-.403-.096zm.092 1.36a1.5 1.5 0 0 0-.034.527q.033.237.165.397.135.158.365.212a.65.65 0 0 0 .428-.031.78.78 0 0 0 .33-.285q.135-.198.2-.474.064-.27.034-.504a.75.75 0 0 0-.17-.393.67.67 0 0 0-.37-.216.67.67 0 0 0-.423.023.73.73 0 0 0-.323.269 1.4 1.4 0 0 0-.202.476"/><path fill="#7F80FE" d="m21.991 3.96-2.447 1.218-.034 2.734-1.915-1.951-2.61.813L16.25 4.35l-1.58-2.232 2.697.453L18.999.38l.403 2.704z"/><defs><linearGradient id="a" x1="137.383" x2="84.052" y1="68.06" y2="-25.209" gradientUnits="userSpaceOnUse"><stop stop-color="#007BFF"/><stop offset=".5" stop-color="#7F80FF"/><stop offset="1" stop-color="#D1D8FF"/></linearGradient></defs></svg>